<mxfile host="app.diagrams.net" modified="2024-02-06T07:54:42.063Z" agent="Mozilla/5.0 (Windows NT 10.0; Win64; x64) AppleWebKit/537.36 (KHTML, like Gecko) Chrome/121.0.0.0 Safari/537.36" etag="zNo5xdnhtO8lMhbQw4WK" version="21.8.2" type="device">
  <diagram id="C5RBs43oDa-KdzZeNtuy" name="Page-1">
    <mxGraphModel dx="1050" dy="557" grid="1" gridSize="10" guides="1" tooltips="1" connect="1" arrows="1" fold="1" page="1" pageScale="1" pageWidth="827" pageHeight="1169" math="0" shadow="0">
      <root>
        <mxCell id="WIyWlLk6GJQsqaUBKTNV-0" />
        <mxCell id="WIyWlLk6GJQsqaUBKTNV-1" parent="WIyWlLk6GJQsqaUBKTNV-0" />
        <mxCell id="6sE2csk3cye2vYaGTCaD-12" value="" style="edgeStyle=orthogonalEdgeStyle;rounded=0;orthogonalLoop=1;jettySize=auto;html=1;" edge="1" parent="WIyWlLk6GJQsqaUBKTNV-1" source="6sE2csk3cye2vYaGTCaD-8" target="6sE2csk3cye2vYaGTCaD-11">
          <mxGeometry relative="1" as="geometry" />
        </mxCell>
        <mxCell id="6sE2csk3cye2vYaGTCaD-8" value="Start" style="rounded=1;whiteSpace=wrap;html=1;arcSize=50;" vertex="1" parent="WIyWlLk6GJQsqaUBKTNV-1">
          <mxGeometry x="40" y="40" width="120" height="60" as="geometry" />
        </mxCell>
        <mxCell id="6sE2csk3cye2vYaGTCaD-14" value="" style="edgeStyle=orthogonalEdgeStyle;rounded=0;orthogonalLoop=1;jettySize=auto;html=1;" edge="1" parent="WIyWlLk6GJQsqaUBKTNV-1" source="6sE2csk3cye2vYaGTCaD-11" target="6sE2csk3cye2vYaGTCaD-13">
          <mxGeometry relative="1" as="geometry" />
        </mxCell>
        <mxCell id="6sE2csk3cye2vYaGTCaD-11" value="Declarera variabler isRunning&lt;br&gt;accounts" style="rounded=1;whiteSpace=wrap;html=1;arcSize=0;" vertex="1" parent="WIyWlLk6GJQsqaUBKTNV-1">
          <mxGeometry x="40" y="180" width="120" height="60" as="geometry" />
        </mxCell>
        <mxCell id="6sE2csk3cye2vYaGTCaD-16" value="" style="edgeStyle=orthogonalEdgeStyle;rounded=0;orthogonalLoop=1;jettySize=auto;html=1;" edge="1" parent="WIyWlLk6GJQsqaUBKTNV-1" source="6sE2csk3cye2vYaGTCaD-13" target="6sE2csk3cye2vYaGTCaD-15">
          <mxGeometry relative="1" as="geometry" />
        </mxCell>
        <mxCell id="6sE2csk3cye2vYaGTCaD-17" value="Flase" style="edgeLabel;html=1;align=center;verticalAlign=middle;resizable=0;points=[];" vertex="1" connectable="0" parent="6sE2csk3cye2vYaGTCaD-16">
          <mxGeometry x="0.02" y="-5" relative="1" as="geometry">
            <mxPoint y="-5" as="offset" />
          </mxGeometry>
        </mxCell>
        <mxCell id="6sE2csk3cye2vYaGTCaD-13" value="isRunning" style="rhombus;whiteSpace=wrap;html=1;rounded=1;arcSize=0;" vertex="1" parent="WIyWlLk6GJQsqaUBKTNV-1">
          <mxGeometry x="40" y="310" width="120" height="80" as="geometry" />
        </mxCell>
        <mxCell id="6sE2csk3cye2vYaGTCaD-15" value="End" style="whiteSpace=wrap;html=1;rounded=1;arcSize=50;" vertex="1" parent="WIyWlLk6GJQsqaUBKTNV-1">
          <mxGeometry x="240" y="320" width="120" height="60" as="geometry" />
        </mxCell>
      </root>
    </mxGraphModel>
  </diagram>
</mxfile>
